<svg xmlns="http://www.w3.org/2000/svg" xmlns:xlink="http://www.w3.org/1999/xlink" width="2991" height="1656" viewBox="0 0 2991 1656"><defs><path id="d8ska" d="M-581.112 3495.473s408.084-385.19 913.834-257.152c369.177 93.463 477.195 15.151 636.13-12.805 158.935-27.957 338.81-45.308 569.549-.642 230.739 44.667 525.773-39.282 568.624-212.875 42.852-173.593 301.738 1462.243 301.738 1462.243s-408.01-147.14-727.493-74.182c-238.59 54.485-357.214 156.365-782.634 91.611-427.325-65.044-525.889-82.66-1046.537 60.296-520.648 142.957-19.57 121.33-203.312 26.33-183.74-95.002-229.9-1082.824-229.9-1082.824z"/><linearGradient id="d8skb" x1="-581.11" x2="2408.89" y1="3826.38" y2="3827.1" gradientUnits="userSpaceOnUse"><stop offset="0" stop-color="#4194fc"/><stop offset="1" stop-color="#0bded3"/></linearGradient></defs><g><g transform="translate(582 -2999)"><use fill="#00c853" xlink:href="#d8ska"/><use fill="url(#d8skb)" xlink:href="#d8ska"/></g></g></svg>